<svg width="17" height="17" viewBox="0 0 17 17" fill="none" xmlns="http://www.w3.org/2000/svg">
<path d="M7.33329 14C8.81244 13.9997 10.249 13.5045 11.4141 12.5933L15.0775 16.2567L16.2558 15.0783L12.5925 11.415C13.5041 10.2497 13.9996 8.81286 14 7.33333C14 3.6575 11.0091 0.666666 7.33329 0.666666C3.65746 0.666666 0.666626 3.6575 0.666626 7.33333C0.666626 11.0092 3.65746 14 7.33329 14ZM7.33329 2.33333C10.0908 2.33333 12.3333 4.57583 12.3333 7.33333C12.3333 10.0908 10.0908 12.3333 7.33329 12.3333C4.57579 12.3333 2.33329 10.0908 2.33329 7.33333C2.33329 4.57583 4.57579 2.33333 7.33329 2.33333Z" fill="#222222"/>
</svg>
