<svg width="25" height="31" viewBox="0 0 25 31" fill="none" xmlns="http://www.w3.org/2000/svg">
<path d="M12.4999 15.5001C13.302 15.5001 13.9889 15.2142 14.5605 14.6426C15.1312 14.0719 15.4166 13.3855 15.4166 12.5834C15.4166 11.7813 15.1312 11.0945 14.5605 10.5228C13.9889 9.9521 13.302 9.66675 12.4999 9.66675C11.6978 9.66675 11.0114 9.9521 10.4408 10.5228C9.86909 11.0945 9.58325 11.7813 9.58325 12.5834C9.58325 13.3855 9.86909 14.0719 10.4408 14.6426C11.0114 15.2142 11.6978 15.5001 12.4999 15.5001ZM12.4999 30.0834C8.58672 26.7536 5.66422 23.6604 3.73242 20.804C1.79964 17.9486 0.833252 15.3056 0.833252 12.8751C0.833252 9.22925 2.00624 6.32473 4.35221 4.16154C6.69721 1.99835 9.41311 0.916748 12.4999 0.916748C15.5867 0.916748 18.3026 1.99835 20.6476 4.16154C22.9936 6.32473 24.1666 9.22925 24.1666 12.8751C24.1666 15.3056 23.2007 17.9486 21.2689 20.804C19.3361 23.6604 16.4131 26.7536 12.4999 30.0834Z" fill="#9B62E0"/>
</svg>
