<svg width="30" height="30" viewBox="0 0 30 30" fill="none" xmlns="http://www.w3.org/2000/svg">
<g clip-path="url(#clip0_10_416)">
<path d="M15 30C18.9782 30 22.7936 28.4196 25.6066 25.6066C28.4196 22.7936 30 18.9782 30 15C30 11.0218 28.4196 7.20644 25.6066 4.3934C22.7936 1.58035 18.9782 0 15 0C11.0218 0 7.20644 1.58035 4.3934 4.3934C1.58035 7.20644 0 11.0218 0 15C0 18.9782 1.58035 22.7936 4.3934 25.6066C7.20644 28.4196 11.0218 30 15 30ZM9.61523 19.0723C10.6641 20.2852 12.457 21.5625 15 21.5625C17.543 21.5625 19.3359 20.2852 20.3848 19.0723C20.7246 18.6797 21.3164 18.6387 21.709 18.9785C22.1016 19.3184 22.1426 19.9102 21.8027 20.3027C20.4961 21.8027 18.2285 23.4375 15 23.4375C11.7715 23.4375 9.50391 21.8027 8.19727 20.3027C7.85742 19.9102 7.89844 19.3184 8.29102 18.9785C8.68359 18.6387 9.27539 18.6797 9.61523 19.0723ZM8.46094 12.1875C8.46094 11.6902 8.65848 11.2133 9.01011 10.8617C9.36174 10.51 9.83866 10.3125 10.3359 10.3125C10.8332 10.3125 11.3101 10.51 11.6618 10.8617C12.0134 11.2133 12.2109 11.6902 12.2109 12.1875C12.2109 12.6848 12.0134 13.1617 11.6618 13.5133C11.3101 13.865 10.8332 14.0625 10.3359 14.0625C9.83866 14.0625 9.36174 13.865 9.01011 13.5133C8.65848 13.1617 8.46094 12.6848 8.46094 12.1875ZM19.7109 10.3125C20.2082 10.3125 20.6851 10.51 21.0368 10.8617C21.3884 11.2133 21.5859 11.6902 21.5859 12.1875C21.5859 12.6848 21.3884 13.1617 21.0368 13.5133C20.6851 13.865 20.2082 14.0625 19.7109 14.0625C19.2137 14.0625 18.7367 13.865 18.3851 13.5133C18.0335 13.1617 17.8359 12.6848 17.8359 12.1875C17.8359 11.6902 18.0335 11.2133 18.3851 10.8617C18.7367 10.51 19.2137 10.3125 19.7109 10.3125Z" fill="#9B62E0"/>
</g>
<defs>
<clipPath id="clip0_10_416">
<rect width="30" height="30" fill="white"/>
</clipPath>
</defs>
</svg>
